<svg xmlns="http://www.w3.org/2000/svg" viewBox="0 0 400 150" width="400" height="150">

<g transform="translate(15,15)"><svg width="120" height="120" viewBox="0 0 120 120"><clipPath id="c"><circle cx="60" cy="60" r="53"></circle></clipPath><circle cx="60" cy="60" r="53" fill="#12332d"></circle><g clip-path="url(#c)"><circle cx="60" cy="50" r="24" fill="#e6a12b"></circle><polygon points="12,104 44,58 74,104" fill="#f7f3ea"></polygon><polygon points="52,104 84,48 116,104" fill="#f7f3ea"></polygon></g><circle cx="60" cy="60" r="53" fill="none" stroke="#12332d" stroke-width="2"></circle></svg></g>
<g fill="#12332d"><path transform="translate(158,72)" d="M28.64 0L3.39 0L3.39-30.23L28.34-30.23L28.34-24.07L11.26-24.07L11.26-18.39L26.18-18.39L26.18-12.36L11.26-12.36L11.26-6.16L28.64-6.16L28.64 0ZM40.70 0L33.48 0L33.48-31.86L40.70-31.86L40.70 0ZM57.51 0.53L57.51 0.53Q53.55 0.53 50.78-0.77Q48.00-2.07 46.53-4.75Q45.06-7.44 45.06-11.62L45.06-11.62Q45.06-15.71 46.51-18.39Q47.96-21.08 50.69-22.40Q53.42-23.72 57.24-23.72L57.24-23.72Q61.03-23.72 63.65-22.44Q66.26-21.16 67.63-18.52Q68.99-15.88 68.99-11.70L68.99-11.70L68.99-10.16L52.36-10.16Q52.36-8.32 52.89-7.04Q53.42-5.76 54.52-5.10Q55.62-4.44 57.46-4.44L57.46-4.44Q58.56-4.44 59.40-4.71Q60.24-4.97 60.81-5.48Q61.38-5.98 61.69-6.69Q62.00-7.39 62.00-8.27L62.00-8.27L68.99-8.27Q68.99-6.16 68.22-4.51Q67.45-2.86 65.96-1.74Q64.46-0.62 62.33-0.04Q60.19 0.53 57.51 0.53ZM52.40-14.17L52.40-14.17L61.64-14.17Q61.64-15.31 61.36-16.17Q61.07-17.03 60.52-17.60Q59.97-18.17 59.20-18.46Q58.43-18.74 57.42-18.74L57.42-18.74Q55.84-18.74 54.78-18.22Q53.72-17.69 53.15-16.68Q52.58-15.66 52.40-14.17ZM84.35 0.53L84.35 0.53Q80.52 0.53 77.84-0.79Q75.15-2.11 73.72-4.82Q72.29-7.52 72.29-11.62L72.29-11.62Q72.29-15.71 73.74-18.41Q75.20-21.12 77.88-22.44Q80.56-23.76 84.35-23.76L84.35-23.76Q86.81-23.76 88.90-23.19Q90.99-22.62 92.55-21.43Q94.12-20.24 94.95-18.44Q95.79-16.63 95.79-14.12L95.79-14.12L88.70-14.12Q88.70-15.62 88.20-16.59Q87.69-17.56 86.72-18.04Q85.76-18.52 84.30-18.52L84.30-18.52Q82.63-18.52 81.60-17.82Q80.56-17.12 80.08-15.75Q79.60-14.39 79.60-12.36L79.60-12.36L79.60-10.78Q79.60-8.80 80.08-7.44Q80.56-6.07 81.66-5.39Q82.76-4.71 84.48-4.71L84.48-4.71Q85.98-4.71 86.97-5.17Q87.96-5.63 88.48-6.62Q89.01-7.61 89.01-9.11L89.01-9.11L95.79-9.11Q95.79-6.69 94.95-4.86Q94.12-3.04 92.58-1.85Q91.04-0.66 88.92-0.07Q86.81 0.53 84.35 0.53ZM108.46 0.53L108.46 0.53Q106.22 0.53 104.65-0.15Q103.09-0.84 102.32-2.20Q101.55-3.56 101.55-5.50L101.55-5.50L101.55-17.95L98.52-17.95L98.52-23.19L101.77-23.19L103.27-29.96L108.72-29.96L108.72-23.19L113.26-23.19L113.26-17.95L108.72-17.95L108.72-7.26Q108.72-6.03 109.21-5.37Q109.69-4.71 110.97-4.71L110.97-4.71L113.26-4.71L113.26-0.22Q112.68-0.04 111.83 0.15Q110.97 0.35 110.09 0.44Q109.21 0.53 108.46 0.53ZM124.48 0L117.26 0L117.26-23.19L123.20-23.19L123.73-19.62L124.04-19.62Q124.56-20.81 125.33-21.76Q126.10-22.70 127.23-23.23Q128.35-23.76 129.71-23.76L129.71-23.76Q130.50-23.76 131.16-23.61Q131.82-23.45 132.13-23.28L132.13-23.28L132.13-16.98L129.84-16.98Q128.48-16.98 127.45-16.61Q126.41-16.24 125.75-15.47Q125.09-14.70 124.78-13.60Q124.48-12.50 124.48-11.04L124.48-11.04L124.48 0Z"></path><path transform="translate(314.44,72)" d="M13.68 0.53L13.68 0.53Q9.86 0.53 7.17-0.79Q4.49-2.11 3.06-4.82Q1.63-7.52 1.63-11.62L1.63-11.62Q1.63-15.71 3.08-18.41Q4.53-21.12 7.22-22.44Q9.90-23.76 13.68-23.76L13.68-23.76Q16.15-23.76 18.24-23.19Q20.33-22.62 21.89-21.43Q23.45-20.24 24.29-18.44Q25.12-16.63 25.12-14.12L25.12-14.12L18.04-14.12Q18.04-15.62 17.53-16.59Q17.03-17.56 16.06-18.04Q15.09-18.52 13.64-18.52L13.64-18.52Q11.97-18.52 10.93-17.82Q9.90-17.12 9.42-15.75Q8.93-14.39 8.93-12.36L8.93-12.36L8.93-10.78Q8.93-8.80 9.42-7.44Q9.90-6.07 11-5.39Q12.10-4.71 13.82-4.71L13.82-4.71Q15.31-4.71 16.30-5.17Q17.29-5.63 17.82-6.62Q18.35-7.61 18.35-9.11L18.35-9.11L25.12-9.11Q25.12-6.69 24.29-4.86Q23.45-3.04 21.91-1.85Q20.37-0.66 18.26-0.07Q16.15 0.53 13.68 0.53ZM36.12 0.53L36.12 0.53Q34.67 0.53 33.29 0.24Q31.90-0.04 30.78-0.77Q29.66-1.50 29.00-2.77Q28.34-4.05 28.34-5.98L28.34-5.98Q28.34-8.49 29.39-10.08Q30.45-11.66 32.45-12.56Q34.45-13.46 37.29-13.82Q40.13-14.17 43.65-14.17L43.65-14.17L43.65-15.62Q43.65-16.63 43.25-17.31Q42.86-18.00 42.09-18.37Q41.32-18.74 40.04-18.74L40.04-18.74Q38.90-18.74 38.04-18.48Q37.18-18.22 36.74-17.71Q36.30-17.20 36.30-16.50L36.30-16.50L36.30-16.10L29.26-16.10Q29.22-16.32 29.22-16.50L29.22-16.50L29.22-16.90Q29.22-18.96 30.51-20.50Q31.81-22.04 34.23-22.88Q36.65-23.72 40.08-23.72L40.08-23.72Q43.30-23.72 45.69-22.92Q48.09-22.13 49.48-20.50Q50.86-18.88 50.86-16.24L50.86-16.24L50.86-6.34Q50.86-5.59 51.28-5.15Q51.70-4.71 52.32-4.71L52.32-4.71L53.81-4.71L53.81-0.26Q53.33-0.04 52.29 0.24Q51.26 0.53 49.81 0.53L49.81 0.53Q48.31 0.53 47.19 0.15Q46.07-0.22 45.34-0.90Q44.62-1.58 44.35-2.51L44.35-2.51L44.04-2.51Q43.21-1.63 42.09-0.92Q40.96-0.22 39.49 0.15Q38.02 0.53 36.12 0.53ZM38.81-4.44L38.81-4.44Q39.86-4.44 40.74-4.75Q41.62-5.06 42.26-5.61Q42.90-6.16 43.27-6.95Q43.65-7.74 43.65-8.67L43.65-8.67L43.65-10.21Q41.14-10.21 39.34-9.86Q37.53-9.50 36.56-8.76Q35.60-8.01 35.60-6.86L35.60-6.86Q35.60-6.03 36.01-5.48Q36.43-4.93 37.14-4.69Q37.84-4.44 38.81-4.44ZM63.98 0L56.76 0L56.76-31.86L63.98-31.86L63.98 0Z"></path></g>
<svg x="292.44" y="34" width="20" height="40" viewBox="0 0 18 36" overflow="visible"><circle cx="9" cy="10" r="7" fill="#e6a12b"></circle><rect x="5" y="18" width="8" height="3.5" rx="1" fill="#12332d"></rect><rect x="6" y="23" width="6" height="3" fill="#12332d"></rect><rect x="6.3" y="29" width="5.4" height="6" rx="1.5" fill="#12332d"></rect></svg>
<path transform="translate(159,104)" fill="#c98a1c" d="M5.29 0.24L5.29 0.24Q3.94 0.24 2.91-0.24Q1.87-0.71 1.28-1.64Q0.70-2.57 0.70-3.89L0.70-3.89L0.70-4.32L2.52-4.32L2.52-3.89Q2.52-2.64 3.27-2.01Q4.03-1.38 5.29-1.38L5.29-1.38Q6.56-1.38 7.21-1.91Q7.85-2.45 7.85-3.30L7.85-3.30Q7.85-3.86 7.55-4.22Q7.24-4.57 6.68-4.79Q6.12-5.00 5.34-5.19L5.34-5.19L4.71-5.34Q3.57-5.61 2.73-6.01Q1.89-6.41 1.43-7.07Q0.97-7.74 0.97-8.77L0.97-8.77Q0.97-9.83 1.49-10.57Q2.01-11.32 2.92-11.73Q3.84-12.14 5.08-12.14L5.08-12.14Q6.32-12.14 7.30-11.71Q8.28-11.29 8.84-10.46Q9.40-9.62 9.40-8.36L9.40-8.36L9.40-7.75L7.58-7.75L7.58-8.36Q7.58-9.13 7.27-9.61Q6.95-10.08 6.39-10.30Q5.83-10.52 5.08-10.52L5.08-10.52Q4.00-10.52 3.39-10.07Q2.79-9.62 2.79-8.82L2.79-8.82Q2.79-8.28 3.05-7.93Q3.32-7.58 3.83-7.36Q4.33-7.14 5.10-6.97L5.10-6.97L5.73-6.82Q6.89-6.56 7.77-6.16Q8.65-5.76 9.16-5.08Q9.67-4.40 9.67-3.33L9.67-3.33Q9.67-2.26 9.14-1.46Q8.60-0.66 7.62-0.21Q6.63 0.24 5.29 0.24ZM23.27 0L21.43 0L21.43-10.23L17.78-10.23L17.78-11.90L26.92-11.90L26.92-10.23L23.27-10.23L23.27 0ZM48.71 0L46.93 0L46.93-11.90L50.38-11.90L52.98-1.22L53.25-1.22L55.85-11.90L59.30-11.90L59.30 0L57.52 0L57.52-10.61L57.24-10.61L54.66 0L51.57 0L48.98-10.61L48.71-10.61L48.71 0ZM69.80 0L67.90 0L71.30-11.90L74.53-11.90L77.91 0L76.03 0L75.24-2.81L70.59-2.81L69.80 0ZM72.78-10.76L71.04-4.50L74.78-4.50L73.05-10.76L72.78-10.76ZM88.36 0L86.53 0L86.53-11.90L91.53-11.90Q92.63-11.90 93.47-11.52Q94.31-11.14 94.78-10.42Q95.25-9.71 95.25-8.72L95.25-8.72L95.25-8.53Q95.25-7.41 94.71-6.74Q94.18-6.07 93.41-5.80L93.41-5.80L93.41-5.53Q94.06-5.49 94.45-5.09Q94.84-4.69 94.84-3.94L94.84-3.94L94.84 0L92.99 0L92.99-3.69Q92.99-4.15 92.75-4.42Q92.51-4.69 91.98-4.69L91.98-4.69L88.36-4.69L88.36 0ZM88.36-10.23L88.36-6.36L91.32-6.36Q92.31-6.36 92.85-6.86Q93.39-7.36 93.39-8.23L93.39-8.23L93.39-8.36Q93.39-9.23 92.86-9.73Q92.32-10.23 91.32-10.23L91.32-10.23L88.36-10.23ZM109.20 0L107.35 0L107.35-4.32L103.22-11.90L105.29-11.90L108.15-6.51L108.40-6.51L111.26-11.90L113.33-11.90L109.20-4.32L109.20 0ZM125.81 0.24L125.81 0.24Q124.46 0.24 123.43-0.24Q122.39-0.71 121.80-1.64Q121.22-2.57 121.22-3.89L121.22-3.89L121.22-4.32L123.04-4.32L123.04-3.89Q123.04-2.64 123.79-2.01Q124.55-1.38 125.81-1.38L125.81-1.38Q127.08-1.38 127.73-1.91Q128.37-2.45 128.37-3.30L128.37-3.30Q128.37-3.86 128.07-4.22Q127.76-4.57 127.20-4.79Q126.64-5.00 125.86-5.19L125.86-5.19L125.23-5.34Q124.09-5.61 123.25-6.01Q122.41-6.41 121.95-7.07Q121.49-7.74 121.49-8.77L121.49-8.77Q121.49-9.83 122.01-10.57Q122.53-11.32 123.44-11.73Q124.36-12.14 125.60-12.14L125.60-12.14Q126.84-12.14 127.82-11.71Q128.80-11.29 129.36-10.46Q129.92-9.62 129.92-8.36L129.92-8.36L129.92-7.75L128.10-7.75L128.10-8.36Q128.10-9.13 127.79-9.61Q127.47-10.08 126.91-10.30Q126.35-10.52 125.60-10.52L125.60-10.52Q124.51-10.52 123.91-10.07Q123.31-9.62 123.31-8.82L123.31-8.82Q123.31-8.28 123.57-7.93Q123.83-7.58 124.34-7.36Q124.85-7.14 125.62-6.97L125.62-6.97L126.25-6.82Q127.40-6.56 128.29-6.16Q129.17-5.76 129.68-5.08Q130.19-4.40 130.19-3.33L130.19-3.33Q130.19-2.26 129.66-1.46Q129.12-0.66 128.14-0.21Q127.15 0.24 125.81 0.24Z"></path>
</svg>